<svg width="16.000000" height="14.000000" viewBox="0 0 16 14" fill="none" xmlns="http://www.w3.org/2000/svg" xmlns:xlink="http://www.w3.org/1999/xlink">
	<desc>
			Created with Pixso.
	</desc>
	<defs/>
	<path id="Vector" d="M16 4.00099C16.0003 3.08188 15.6703 2.19069 15.0654 1.47737C14.4606 0.764053 13.6177 0.272125 12.6788 0.0843658C11.7399 -0.103409 10.7621 0.0244293 9.90994 0.446381C9.05782 0.868332 8.38333 1.55862 8 2.40115C7.61667 1.55862 6.94218 0.868332 6.09006 0.446381C5.23793 0.0244293 4.26015 -0.103409 3.3212 0.0843658C2.38226 0.272125 1.53944 0.764053 0.93457 1.47737C0.329697 2.19069 -0.000335693 3.08188 0 4.00099C0 8.45389 6.95653 12.0002 8 14C9.04347 12.0002 15.9096 8.46722 16 4.00099Z" fill="#FFFFFF" fill-opacity="0.400000" fill-rule="nonzero"/>
</svg>
